<svg viewBox="0 0 1200 700" xmlns="http://www.w3.org/2000/svg" role="img" aria-labelledby="title desc">
  <title id="title">Press de pecho en maquina</title>
  <desc id="desc">Ilustracion de persona realizando press de pecho en maquina guiada.</desc>
  <defs>
    <linearGradient id="bg2" x1="0" y1="0" x2="1" y2="1">
      <stop offset="0%" stop-color="#1f2a34"/>
      <stop offset="100%" stop-color="#252526"/>
    </linearGradient>
  </defs>
  <rect width="1200" height="700" fill="url(#bg2)"/>
  <rect x="730" y="160" width="50" height="340" rx="12" fill="#4ec9b0"/>
  <rect x="610" y="270" width="220" height="24" rx="12" fill="#9da5b4"/>
  <rect x="540" y="240" width="80" height="86" rx="16" fill="#6a9955"/>
  <rect x="530" y="470" width="280" height="36" rx="12" fill="#3c3c40"/>
  <rect x="450" y="430" width="180" height="75" rx="18" fill="#2d2d30"/>
  <circle cx="470" cy="290" r="42" fill="#f2c9a1"/>
  <rect x="445" y="330" width="50" height="110" rx="18" fill="#d7ba7d"/>
  <line x1="445" y1="352" x2="560" y2="285" stroke="#f2c9a1" stroke-width="16" stroke-linecap="round"/>
  <line x1="495" y1="352" x2="610" y2="285" stroke="#f2c9a1" stroke-width="16" stroke-linecap="round"/>
  <line x1="455" y1="440" x2="430" y2="510" stroke="#9da5b4" stroke-width="18" stroke-linecap="round"/>
  <line x1="485" y1="440" x2="520" y2="510" stroke="#9da5b4" stroke-width="18" stroke-linecap="round"/>
  <rect x="95" y="70" width="440" height="180" rx="22" fill="#252526" stroke="#d7ba7d" stroke-opacity="0.5"/>
  <text x="125" y="125" font-size="40" fill="#d7ba7d" font-family="Segoe UI, sans-serif" font-weight="700">Chest Press</text>
  <text x="125" y="175" font-size="28" fill="#d4d4d4" font-family="Segoe UI, sans-serif">Press de pecho en maquina</text>
  <text x="125" y="220" font-size="22" fill="#9da5b4" font-family="Segoe UI, sans-serif">Espalda apoyada · Empuje controlado</text>
</svg>
