<svg viewBox="0 0 1200 700" xmlns="http://www.w3.org/2000/svg" role="img" aria-labelledby="title desc">
  <title id="title">Jalon al pecho en polea</title>
  <desc id="desc">Ilustracion de persona realizando jalon al pecho en maquina de polea.</desc>
  <defs>
    <linearGradient id="bg" x1="0" y1="0" x2="1" y2="1">
      <stop offset="0%" stop-color="#1e1e1e"/>
      <stop offset="100%" stop-color="#2a2a2e"/>
    </linearGradient>
  </defs>
  <rect width="1200" height="700" fill="url(#bg)"/>
  <rect x="850" y="80" width="40" height="460" rx="12" fill="#6a9955"/>
  <rect x="700" y="90" width="190" height="20" rx="10" fill="#4ec9b0"/>
  <rect x="610" y="90" width="95" height="20" rx="10" fill="#9da5b4"/>
  <line x1="660" y1="110" x2="660" y2="260" stroke="#d4d4d4" stroke-width="8"/>
  <rect x="610" y="258" width="100" height="16" rx="8" fill="#d7ba7d"/>
  <rect x="470" y="510" width="360" height="30" rx="10" fill="#3c3c40"/>
  <rect x="530" y="450" width="210" height="70" rx="16" fill="#252526"/>
  <circle cx="600" cy="275" r="44" fill="#f2c9a1"/>
  <rect x="570" y="315" width="60" height="120" rx="20" fill="#4ec9b0"/>
  <line x1="570" y1="340" x2="520" y2="268" stroke="#f2c9a1" stroke-width="16" stroke-linecap="round"/>
  <line x1="630" y1="340" x2="680" y2="268" stroke="#f2c9a1" stroke-width="16" stroke-linecap="round"/>
  <line x1="585" y1="435" x2="550" y2="520" stroke="#9da5b4" stroke-width="18" stroke-linecap="round"/>
  <line x1="615" y1="435" x2="650" y2="520" stroke="#9da5b4" stroke-width="18" stroke-linecap="round"/>
  <rect x="95" y="70" width="410" height="180" rx="22" fill="#252526" stroke="#4ec9b0" stroke-opacity="0.45"/>
  <text x="125" y="125" font-size="40" fill="#4ec9b0" font-family="Segoe UI, sans-serif" font-weight="700">Lat Pulldown</text>
  <text x="125" y="175" font-size="28" fill="#d4d4d4" font-family="Segoe UI, sans-serif">Jalon al pecho en polea</text>
  <text x="125" y="220" font-size="22" fill="#9da5b4" font-family="Segoe UI, sans-serif">Codos hacia abajo · Torso estable</text>
</svg>
