<svg viewBox="0 0 1200 700" xmlns="http://www.w3.org/2000/svg" role="img" aria-labelledby="title desc">
  <title id="title">Prensa de piernas</title>
  <desc id="desc">Ilustracion de persona realizando prensa de piernas en maquina inclinada.</desc>
  <defs>
    <linearGradient id="bg3" x1="0" y1="0" x2="1" y2="1">
      <stop offset="0%" stop-color="#1e1e1e"/>
      <stop offset="100%" stop-color="#1f2a34"/>
    </linearGradient>
  </defs>
  <rect width="1200" height="700" fill="url(#bg3)"/>
  <polygon points="700,150 1040,280 980,430 640,300" fill="#3c3c40"/>
  <rect x="600" y="320" width="320" height="28" rx="12" transform="rotate(22 600 320)" fill="#9da5b4"/>
  <rect x="380" y="440" width="280" height="90" rx="18" fill="#2d2d30"/>
  <circle cx="480" cy="300" r="40" fill="#f2c9a1"/>
  <rect x="458" y="336" width="44" height="110" rx="18" fill="#4ec9b0"/>
  <line x1="500" y1="390" x2="690" y2="350" stroke="#f2c9a1" stroke-width="16" stroke-linecap="round"/>
  <line x1="500" y1="420" x2="695" y2="410" stroke="#f2c9a1" stroke-width="16" stroke-linecap="round"/>
  <line x1="470" y1="446" x2="560" y2="520" stroke="#9da5b4" stroke-width="18" stroke-linecap="round"/>
  <line x1="495" y1="446" x2="635" y2="520" stroke="#9da5b4" stroke-width="18" stroke-linecap="round"/>
  <rect x="95" y="70" width="420" height="180" rx="22" fill="#252526" stroke="#569cd6" stroke-opacity="0.5"/>
  <text x="125" y="125" font-size="40" fill="#569cd6" font-family="Segoe UI, sans-serif" font-weight="700">Leg Press</text>
  <text x="125" y="175" font-size="28" fill="#d4d4d4" font-family="Segoe UI, sans-serif">Prensa de piernas</text>
  <text x="125" y="220" font-size="22" fill="#9da5b4" font-family="Segoe UI, sans-serif">Talones apoyados · Rodillas alineadas</text>
</svg>
